<svg width="594" height="698" viewBox="0 0 594 698" fill="none" xmlns="http://www.w3.org/2000/svg">
<path fill-rule="evenodd" clip-rule="evenodd" d="M967.986 221.497L967.724 227.405L967.214 233.303L966.46 239.185L965.464 245.045L964.229 250.876L962.761 256.671L961.063 262.426L959.141 268.135L957.002 273.791L954.651 279.391L952.095 284.929L949.342 290.4L946.401 295.801L943.279 301.127L939.985 306.376L936.528 311.544L932.916 316.629L929.159 321.627L925.264 326.537L921.24 331.357L917.096 336.085L912.839 340.721L908.478 345.263L904.022 349.71L899.479 354.063L894.856 358.32L890.161 362.484L885.404 366.553L880.59 370.529L875.728 374.413L870.825 378.206L865.888 381.91L860.924 385.526L855.94 389.056L850.94 392.501L845.932 395.865L840.92 399.149L835.91 402.356L830.906 405.487L825.914 408.546L820.937 411.536L815.981 414.458L811.05 417.317L806.146 420.114L801.275 422.853L796.439 425.538L791.641 428.171L786.884 430.755L782.171 433.294L777.503 435.79L772.883 438.247L768.312 440.668L763.791 443.055L759.322 445.412L754.904 447.741L750.54 450.045L746.228 452.326L741.968 454.587L737.762 456.83L733.607 459.057L729.503 461.271L725.45 463.473L721.446 465.665L717.49 467.849L713.58 470.025L709.714 472.194L705.891 474.359L702.108 476.518L698.364 478.673L694.655 480.825L690.979 482.971L687.334 485.114L683.717 487.252L680.125 489.384L676.556 491.511L673.007 493.63L669.475 495.74L665.957 497.841L662.451 499.93L658.954 502.006L655.464 504.067L651.978 506.111L648.493 508.137L645.008 510.142L641.52 512.124L638.028 514.08L634.529 516.01L631.022 517.911L627.507 519.78L623.98 521.616L620.442 523.417L616.891 525.18L613.326 526.905L609.748 528.59L606.155 530.232L602.548 531.832L598.927 533.387L595.29 534.897L591.64 536.36L587.976 537.777L584.298 539.146L580.607 540.467L576.904 541.741L573.19 542.966L569.464 544.144L565.73 545.274L561.986 546.358L558.234 547.396L554.476 548.389L550.713 549.339L546.944 550.247L543.173 551.115L539.399 551.946L535.625 552.743L531.852 553.51L528.082 554.253L524.316 554.977L520.556 555.687L516.803 556.391L513.058 557.094L509.321 557.803L505.595 558.527L501.878 559.27L498.171 560.042L494.474 560.849L490.785 561.698L487.105 562.596L483.431 563.55L479.762 564.565L476.096 565.649L472.43 566.807L468.763 568.043L465.092 569.363L461.412 570.771L457.722 572.271L454.017 573.865L450.293 575.558L446.548 577.35L442.776 579.245L438.974 581.243L435.137 583.345L431.262 585.551L427.344 587.86L423.378 590.272L419.36 592.784L415.287 595.395L411.154 598.1L406.957 600.897L402.692 603.781L398.356 606.748L393.945 609.791L389.456 612.906L384.887 616.086L380.233 619.323L375.493 622.61L370.666 625.94L365.749 629.303L360.741 632.692L355.641 636.097L350.449 639.508L345.164 642.917L339.788 646.313L334.32 649.686L328.762 653.025L323.115 656.32L317.382 659.561L311.566 662.737L305.668 665.838L299.694 668.853L293.645 671.772L287.528 674.585L281.345 677.281L275.103 679.851L268.807 682.285L262.462 684.575L256.074 686.711L249.65 688.685L243.644 689.958L236.719 692.115L230.227 693.556L223.725 694.806L217.222 695.86L210.725 696.71L204.241 697.353L197.778 697.784L191.344 698L184.946 697.997L178.591 697.774L172.288 697.328L166.042 696.658L159.861 695.764L153.753 694.646L147.723 693.305L141.779 691.741L135.926 689.958L130.169 687.958L124.515 685.744L118.968 683.32L113.533 680.69L108.214 677.86L103.015 674.834L97.9389 671.618L92.9885 668.22L88.1661 664.644L83.4736 660.9L78.9122 656.993L74.4827 652.931L70.1855 648.723L66.0207 644.375L61.9883 639.896L58.0882 635.292L54.3203 630.571L50.6843 625.739L47.1797 620.802L43.8061 615.768L40.5629 610.641L37.4493 605.428L34.4646 600.135L31.6081 594.768L28.8787 589.331L26.2757 583.83L23.7981 578.269L21.4452 572.654L19.216 566.989L17.1099 561.278L15.1264 555.525L13.2651 549.733L11.526 543.906L9.90922 538.047L8.41514 532.158L7.04408 526.243L5.7962 520.304L4.67149 514.344L3.66977 508.366L2.79068 502.373L2.03367 496.368L1.398 490.355L0.88274 484.336L0.486746 478.315L0.208683 472.295L0.047017 466.278L2.24113e-05 460.269L0.065779 454.271L0.242169 448.286L0.526874 442.318L0.91738 436.37L1.41098 430.445L2.00477 424.546L2.69567 418.676L3.48044 412.837L4.35564 407.034L5.3177 401.267L6.36291 395.541L7.48741 389.857L8.68724 384.217L9.95833 378.625L11.2965 373.081L12.6975 367.589L14.1571 362.148L15.6708 356.762L17.2342 351.432L18.8431 346.158L20.4928 340.943L22.1789 335.786L23.8971 330.689L25.6429 325.652L27.412 320.675L29.2001 315.759L31.0028 310.905L32.8161 306.111L34.6358 301.377L36.458 296.703L38.2787 292.089L40.0941 287.534L41.9007 283.036L43.6948 278.595L45.4732 274.209L47.2325 269.878L48.9698 265.599L50.6822 261.371L52.3669 257.193L54.0215 253.063L55.6437 248.978L57.2313 244.938L58.7825 240.939L60.2955 236.98L61.769 233.059L63.2016 229.172L64.5925 225.319L65.9408 221.497L67.2461 217.704L68.5079 213.937L69.7263 210.194L70.9013 206.472L72.0334 202.77L73.1231 199.086L74.1712 195.416L75.1787 191.76L76.1469 188.115L77.0771 184.478L77.971 180.849L78.8302 177.225L79.6568 173.605L80.4528 169.987L81.2204 166.369L81.961 162.751L82.676 159.13L83.366 155.505L84.0314 151.874L84.6723 148.235L85.2885 144.588L85.8795 140.929L86.4445 137.257L86.9826 133.57L87.4928 129.866L87.974 126.141L88.4248 122.395L88.8441 118.624L89.2304 114.826L89.5824 110.998L89.8988 107.137L90.1782 103.241L90.4194 99.3053L90.6211 95.328L90.7821 91.3055L90.9013 87.2346L90.9778 83.1118L91.0109 78.9338L91.0004 74.6974L90.9466 70.3992L90.8499 66.0363L90.7113 61.6058L90.5324 57.1049L90.3149 52.531L90.0612 47.8818L89.7741 43.1553L89.4568 38.3498L89.1129 33.4638L88.7465 28.4962L88.3621 23.4463L87.9645 18.3137L87.559 13.0985L87.1513 7.80122L86.7474 2.42282L86.3537 -3.03519L85.9768 -8.57092L85.6237 -14.1819L85.3016 -19.8651L85.0179 -25.6172L84.7802 -31.434L84.5962 -37.311L84.4738 -43.2432L84.4209 -49.225L84.4453 -55.2503L84.5548 -61.3126L84.7574 -67.4048L85.0607 -73.5194L85.4723 -79.6485L85.9994 -85.7837L86.6493 -91.9163L87.4287 -98.0372L88.3443 -104.137L89.4022 -110.206L90.6083 -116.234L91.968 -122.211L93.4863 -128.126L95.1677 -133.969L97.0163 -139.73L99.0355 -145.397L101.228 -150.96L103.597 -156.409L106.144 -161.731L108.87 -166.918L111.777 -171.958L114.863 -176.842L118.128 -181.559L121.572 -186.101L125.193 -190.457L128.987 -194.62L132.953 -198.58L137.087 -202.33L141.385 -205.862L145.841 -209.17L150.451 -212.249L155.21 -215.091L160.11 -217.693L165.145 -220.05L170.308 -222.16L175.592 -224.02L180.988 -225.627L186.489 -226.983L192.086 -228.085L197.769 -228.936L203.531 -229.537L209.362 -229.89L215.253 -230L221.194 -229.87L227.176 -229.505L233.19 -228.912L239.227 -228.098L245.277 -227.069L251.332 -225.833L257.384 -224.399L263.424 -222.775L269.445 -220.969L275.44 -218.989L281.402 -216.843L287.325 -214.54L293.202 -212.088L299.029 -209.495L304.799 -206.771L310.509 -203.924L316.154 -200.962L321.729 -197.895L327.231 -194.731L332.657 -191.478L338.003 -188.145L343.268 -184.74L348.448 -181.271L353.543 -177.746L358.55 -174.173L363.469 -170.558L368.299 -166.908L373.04 -163.231L377.69 -159.531L382.25 -155.817L386.721 -152.095L391.102 -148.37L395.395 -144.65L399.6 -140.941L403.719 -137.249L407.752 -133.58L411.702 -129.941L415.571 -126.336L419.36 -122.772L423.072 -119.255L426.71 -115.789L430.275 -112.381L433.772 -109.034L437.202 -105.754L440.57 -102.544L443.878 -99.4098L447.13 -96.3537L450.329 -93.3796L453.48 -90.4904L456.586 -87.6886L459.65 -84.9767L462.677 -82.3564L465.671 -79.8293L468.635 -77.3965L471.573 -75.0588L474.489 -72.8166L477.386 -70.67L480.27 -68.6187L483.143 -66.662L486.008 -64.799L488.87 -63.0285L491.731 -61.3487L494.595 -59.7579L497.466 -58.2538L500.345 -56.834L503.236 -55.4959L506.142 -54.2366L509.064 -53.0527L512.006 -51.9412L514.969 -50.8983L517.956 -49.9203L520.967 -49.0036L524.005 -48.1439L527.071 -47.3372L530.166 -46.5794L533.291 -45.866L536.447 -45.1927L539.634 -44.5551L542.853 -43.9488L546.104 -43.3693L549.387 -42.8122L552.702 -42.273L556.049 -41.7473L559.426 -41.231L562.834 -40.7196L566.272 -40.2092L569.739 -39.6958L573.233 -39.1754L576.755 -38.6444L580.302 -38.0994L583.874 -37.5371L587.47 -36.9544L591.088 -36.3485L594.728 -35.7165L598.387 -35.0561L602.066 -34.3649L605.762 -33.6408L609.475 -32.8818L613.204 -32.0862L616.947 -31.2522L620.704 -30.3785L624.473 -29.4639L628.254 -28.5077L632.048 -27.51L635.854 -26.4712L639.674 -25.3925L643.51 -24.2755L647.363 -23.1218L651.236 -21.9335L655.131 -20.7127L659.052 -19.4617L663.002 -18.1828L666.984 -16.8781L671.003 -15.5495L675.061 -14.199L679.163 -12.8281L683.312 -11.438L687.512 -10.0297L691.766 -8.60368L696.077 -7.16005L700.448 -5.69841L704.881 -4.21796L709.378 -2.71735L713.94 -1.19489L718.568 0.351395L723.262 1.92365L728.024 3.52415L732.853 5.15546L737.75 6.82018L742.714 8.52116L747.745 10.2614L752.84 12.0441L758 13.8725L763.221 15.75L768.502 17.6801L773.84 19.6664L779.232 21.7127L784.674 23.8227L790.162 26.0002L795.693 28.249L801.259 30.5727L806.858 32.9752L812.483 35.4599L818.128 38.0305L823.787 40.6903L829.452 43.4426L835.118 46.2904L840.777 49.2368L846.42 52.2843L852.041 55.4355L857.631 58.6926L863.181 62.0576L868.682 65.5323L874.127 69.118L879.506 72.8159L884.809 76.6267L890.027 80.5511L895.152 84.589L900.173 88.7403L905.082 93.0044L909.868 97.3803L914.523 101.867L919.037 106.462L923.402 111.164L927.607 115.971L931.646 120.879L935.508 125.886L939.186 130.988L942.673 136.18L945.96 141.46L949.04 146.822L951.908 152.261L954.556 157.773L956.979 163.352L959.172 168.992L961.13 174.688L962.849 180.434L964.326 186.222L965.558 192.048L966.543 197.903L967.278 203.783L967.764 209.68L968 215.587L967.986 221.497Z" fill="url(#paint0_linear_23_158)"/>
<defs>
<linearGradient id="paint0_linear_23_158" x1="221.5" y1="698" x2="1102.74" y2="5.4371" gradientUnits="userSpaceOnUse">
<stop offset="0.328125" stop-color="#DE9CDB"/>
<stop offset="0.989583" stop-color="#69306D" stop-opacity="0.49"/>
</linearGradient>
</defs>
</svg>
